<?xml version='1.0' encoding='utf-8'?>
<svg xmlns="http://www.w3.org/2000/svg" version="1.1" class="marks" width="920" height="586" viewBox="0 0 920 586">
  <rect width="920" height="586" fill="white" />
  <g fill="none" stroke-miterlimit="4" transform="translate(111,10)">
    <g class="mark-group role-frame root" role="graphics-object" aria-roledescription="group mark container">
      <g transform="translate(0,0)">
        <path class="background" aria-hidden="true" d="M0.5,0.5h800v400h-800Z" stroke="#ddd" />
        <g>
          <g class="mark-group role-axis" aria-hidden="true">
            <g transform="translate(0.5,400.5)">
              <path class="background" aria-hidden="true" d="M0,0h0v0h0Z" pointer-events="none" />
              <g>
                <g class="mark-rule role-axis-grid" pointer-events="none">
                  <line transform="translate(36,-400)" x2="0" y2="400" stroke="#ddd" stroke-width="1" opacity="1" />
                  <line transform="translate(138,-400)" x2="0" y2="400" stroke="#ddd" stroke-width="1" opacity="1" />
                  <line transform="translate(230,-400)" x2="0" y2="400" stroke="#ddd" stroke-width="1" opacity="1" />
                  <line transform="translate(331,-400)" x2="0" y2="400" stroke="#ddd" stroke-width="1" opacity="1" />
                  <line transform="translate(430,-400)" x2="0" y2="400" stroke="#ddd" stroke-width="1" opacity="1" />
                  <line transform="translate(531,-400)" x2="0" y2="400" stroke="#ddd" stroke-width="1" opacity="1" />
                  <line transform="translate(630,-400)" x2="0" y2="400" stroke="#ddd" stroke-width="1" opacity="1" />
                  <line transform="translate(731,-400)" x2="0" y2="400" stroke="#ddd" stroke-width="1" opacity="1" />
                </g>
              </g>
              <path class="foreground" aria-hidden="true" d="" pointer-events="none" display="none" />
            </g>
          </g>
          <g class="mark-group role-axis" aria-hidden="true">
            <g transform="translate(0.5,0.5)">
              <path class="background" aria-hidden="true" d="M0,0h0v0h0Z" pointer-events="none" />
              <g>
                <g class="mark-rule role-axis-grid" pointer-events="none">
                  <line transform="translate(0,400)" x2="800" y2="0" stroke="#ddd" stroke-width="1" opacity="1" />
                  <line transform="translate(0,343)" x2="800" y2="0" stroke="#ddd" stroke-width="1" opacity="1" />
                  <line transform="translate(0,286)" x2="800" y2="0" stroke="#ddd" stroke-width="1" opacity="1" />
                  <line transform="translate(0,229)" x2="800" y2="0" stroke="#ddd" stroke-width="1" opacity="1" />
                  <line transform="translate(0,171)" x2="800" y2="0" stroke="#ddd" stroke-width="1" opacity="1" />
                  <line transform="translate(0,114)" x2="800" y2="0" stroke="#ddd" stroke-width="1" opacity="1" />
                  <line transform="translate(0,57)" x2="800" y2="0" stroke="#ddd" stroke-width="1" opacity="1" />
                  <line transform="translate(0,0)" x2="800" y2="0" stroke="#ddd" stroke-width="1" opacity="1" />
                </g>
              </g>
              <path class="foreground" aria-hidden="true" d="" pointer-events="none" display="none" />
            </g>
          </g>
          <g class="mark-group role-axis" role="graphics-symbol" aria-roledescription="axis" aria-label="X-axis titled 'Date' for a utc scale with values from 2025-12-20 23:25:38 (UTC) to 2026-08-21 21:48:51 (UTC)">
            <g transform="translate(0.5,400.5)">
              <path class="background" aria-hidden="true" d="M0,0h0v0h0Z" pointer-events="none" />
              <g>
                <g class="mark-rule role-axis-tick" pointer-events="none">
                  <line transform="translate(36,0)" x2="0" y2="5" stroke="#888" stroke-width="1" opacity="1" />
                  <line transform="translate(138,0)" x2="0" y2="5" stroke="#888" stroke-width="1" opacity="1" />
                  <line transform="translate(230,0)" x2="0" y2="5" stroke="#888" stroke-width="1" opacity="1" />
                  <line transform="translate(331,0)" x2="0" y2="5" stroke="#888" stroke-width="1" opacity="1" />
                  <line transform="translate(430,0)" x2="0" y2="5" stroke="#888" stroke-width="1" opacity="1" />
                  <line transform="translate(531,0)" x2="0" y2="5" stroke="#888" stroke-width="1" opacity="1" />
                  <line transform="translate(630,0)" x2="0" y2="5" stroke="#888" stroke-width="1" opacity="1" />
                  <line transform="translate(731,0)" x2="0" y2="5" stroke="#888" stroke-width="1" opacity="1" />
                </g>
                <g class="mark-text role-axis-label" pointer-events="none">
                  <text text-anchor="end" transform="translate(36.153780785377805,7) rotate(315) translate(0,8)" font-family="sans-serif" font-size="10px" fill="#000" opacity="1">2026-01-01 00:00:00 (UTC)</text>
                  <text text-anchor="end" transform="translate(137.82112967232123,7) rotate(315) translate(0,8)" font-family="sans-serif" font-size="10px" fill="#000" opacity="0">2026-02-01 00:00:00 (UTC)</text>
                  <text text-anchor="end" transform="translate(229.64970286052818,7) rotate(315) translate(0,8)" font-family="sans-serif" font-size="10px" fill="#000" opacity="1">2026-03-01 00:00:00 (UTC)</text>
                  <text text-anchor="end" transform="translate(331.31705174747157,7) rotate(315) translate(0,8)" font-family="sans-serif" font-size="10px" fill="#000" opacity="0">2026-04-01 00:00:00 (UTC)</text>
                  <text text-anchor="end" transform="translate(429.70480873483626,7) rotate(315) translate(0,8)" font-family="sans-serif" font-size="10px" fill="#000" opacity="1">2026-05-01 00:00:00 (UTC)</text>
                  <text text-anchor="end" transform="translate(531.3721576217796,7) rotate(315) translate(0,8)" font-family="sans-serif" font-size="10px" fill="#000" opacity="0">2026-06-01 00:00:00 (UTC)</text>
                  <text text-anchor="end" transform="translate(629.7599146091442,7) rotate(315) translate(0,8)" font-family="sans-serif" font-size="10px" fill="#000" opacity="1">2026-07-01 00:00:00 (UTC)</text>
                  <text text-anchor="end" transform="translate(731.4272634960877,7) rotate(315) translate(0,8)" font-family="sans-serif" font-size="10px" fill="#000" opacity="0">2026-08-01 00:00:00 (UTC)</text>
                </g>
                <g class="mark-rule role-axis-domain" pointer-events="none">
                  <line transform="translate(0,0)" x2="800" y2="0" stroke="#888" stroke-width="1" opacity="1" />
                </g>
                <g class="mark-text role-axis-title" pointer-events="none">
                  <text text-anchor="middle" transform="translate(400,168.49242404917504)" font-family="sans-serif" font-size="11px" font-weight="bold" fill="#000" opacity="1">Date</text>
                </g>
              </g>
              <path class="foreground" aria-hidden="true" d="" pointer-events="none" display="none" />
            </g>
          </g>
          <g class="mark-group role-axis" role="graphics-symbol" aria-roledescription="axis" aria-label="Y-axis titled 'Lines of Code' for a linear scale with values from 0 to 35,000">
            <g transform="translate(0.5,0.5)">
              <path class="background" aria-hidden="true" d="M0,0h0v0h0Z" pointer-events="none" />
              <g>
                <g class="mark-rule role-axis-tick" pointer-events="none">
                  <line transform="translate(0,400)" x2="-5" y2="0" stroke="#888" stroke-width="1" opacity="1" />
                  <line transform="translate(0,343)" x2="-5" y2="0" stroke="#888" stroke-width="1" opacity="1" />
                  <line transform="translate(0,286)" x2="-5" y2="0" stroke="#888" stroke-width="1" opacity="1" />
                  <line transform="translate(0,229)" x2="-5" y2="0" stroke="#888" stroke-width="1" opacity="1" />
                  <line transform="translate(0,171)" x2="-5" y2="0" stroke="#888" stroke-width="1" opacity="1" />
                  <line transform="translate(0,114)" x2="-5" y2="0" stroke="#888" stroke-width="1" opacity="1" />
                  <line transform="translate(0,57)" x2="-5" y2="0" stroke="#888" stroke-width="1" opacity="1" />
                  <line transform="translate(0,0)" x2="-5" y2="0" stroke="#888" stroke-width="1" opacity="1" />
                </g>
                <g class="mark-text role-axis-label" pointer-events="none">
                  <text text-anchor="end" transform="translate(-7,403)" font-family="sans-serif" font-size="10px" fill="#000" opacity="1">0</text>
                  <text text-anchor="end" transform="translate(-7,345.8571428571429)" font-family="sans-serif" font-size="10px" fill="#000" opacity="1">5,000</text>
                  <text text-anchor="end" transform="translate(-7,288.7142857142857)" font-family="sans-serif" font-size="10px" fill="#000" opacity="1">10,000</text>
                  <text text-anchor="end" transform="translate(-7,231.57142857142856)" font-family="sans-serif" font-size="10px" fill="#000" opacity="1">15,000</text>
                  <text text-anchor="end" transform="translate(-7,174.42857142857144)" font-family="sans-serif" font-size="10px" fill="#000" opacity="1">20,000</text>
                  <text text-anchor="end" transform="translate(-7,117.28571428571428)" font-family="sans-serif" font-size="10px" fill="#000" opacity="1">25,000</text>
                  <text text-anchor="end" transform="translate(-7,60.14285714285716)" font-family="sans-serif" font-size="10px" fill="#000" opacity="1">30,000</text>
                  <text text-anchor="end" transform="translate(-7,3)" font-family="sans-serif" font-size="10px" fill="#000" opacity="1">35,000</text>
                </g>
                <g class="mark-rule role-axis-domain" pointer-events="none">
                  <line transform="translate(0,400)" x2="0" y2="-400" stroke="#888" stroke-width="1" opacity="1" />
                </g>
                <g class="mark-text role-axis-title" pointer-events="none">
                  <text text-anchor="middle" transform="translate(-59,200) rotate(-90) translate(0,-2)" font-family="sans-serif" font-size="11px" font-weight="bold" fill="#000" opacity="1">Lines of Code</text>
                </g>
              </g>
              <path class="foreground" aria-hidden="true" d="" pointer-events="none" display="none" />
            </g>
          </g>
          <g class="mark-line role-mark layer_0_marks" role="graphics-object" aria-roledescription="line mark container">
            <path aria-label="Date: 2025-12-20 23:25:38 (UTC); Lines of Code: 29766; Version: v1.0.1" role="graphics-symbol" aria-roledescription="line mark" d="M0,59.817L3.252,59.771L11.81,59.977L42.254,59.566L71.932,59.566L71.993,58.389L117.146,58.251L117.202,58.263L117.435,58.137L117.508,58.149L170.135,57.817L170.519,57.429L172.899,57.303L192.681,56.811L232.787,55.406L254.111,54.549L321.171,54L419.138,52.8L434.415,52.56L448.511,52.366L460.826,52.251L502.801,52.286L544.356,52.274L549.415,52.034L572.644,51.509L573.809,50.766L667.152,47.474L667.287,47.474L690.984,47.28L729.209,46.446L729.454,45.6L755.801,39.943L783.44,38.914L786.945,35.44L789.489,16.32L799.133,10.594L800,8.96" stroke="#4c78a8" stroke-width="2" />
          </g>
          <g class="mark-symbol role-mark layer_1_marks" role="graphics-object" aria-roledescription="symbol mark container">
            <path aria-label="Date: 2025-12-20 23:25:38 (UTC); Lines of Code: 29766; Version: v1.0.1" role="graphics-symbol" aria-roledescription="point" transform="translate(0,59.817142857142834)" d="M2.739,0A2.739,2.739,0,1,1,-2.739,0A2.739,2.739,0,1,1,2.739,0" fill="#4c78a8" stroke-width="2" opacity="1">
              <title>Date: 2025-12-20 23:25:38 (UTC); Lines of Code: 29766; Version: v1.0.1</title>
            </path>
            <path aria-label="Date: 2025-12-21 23:13:34 (UTC); Lines of Code: 29770; Version: v1.0.2" role="graphics-symbol" aria-roledescription="point" transform="translate(3.252110134124016,59.77142857142859)" d="M2.739,0A2.739,2.739,0,1,1,-2.739,0A2.739,2.739,0,1,1,2.739,0" fill="#4c78a8" stroke-width="2" opacity="1">
              <title>Date: 2025-12-21 23:13:34 (UTC); Lines of Code: 29770; Version: v1.0.2</title>
            </path>
            <path aria-label="Date: 2025-12-24 13:51:02 (UTC); Lines of Code: 29752; Version: v1.0.3" role="graphics-symbol" aria-roledescription="point" transform="translate(11.809719330608342,59.977142857142866)" d="M2.739,0A2.739,2.739,0,1,1,-2.739,0A2.739,2.739,0,1,1,2.739,0" fill="#4c78a8" stroke-width="2" opacity="1">
              <title>Date: 2025-12-24 13:51:02 (UTC); Lines of Code: 29752; Version: v1.0.3</title>
            </path>
            <path aria-label="Date: 2026-01-02 20:38:20 (UTC); Lines of Code: 29788; Version: v1.0.4" role="graphics-symbol" aria-roledescription="point" transform="translate(42.2536698856361,59.565714285714265)" d="M2.739,0A2.739,2.739,0,1,1,-2.739,0A2.739,2.739,0,1,1,2.739,0" fill="#4c78a8" stroke-width="2" opacity="1">
              <title>Date: 2026-01-02 20:38:20 (UTC); Lines of Code: 29788; Version: v1.0.4</title>
            </path>
            <path aria-label="Date: 2026-01-11 21:49:25 (UTC); Lines of Code: 29788; Version: v2.0.0" role="graphics-symbol" aria-roledescription="point" transform="translate(71.9318888736476,59.565714285714265)" d="M2.739,0A2.739,2.739,0,1,1,-2.739,0A2.739,2.739,0,1,1,2.739,0" fill="#4c78a8" stroke-width="2" opacity="1">
              <title>Date: 2026-01-11 21:49:25 (UTC); Lines of Code: 29788; Version: v2.0.0</title>
            </path>
            <path aria-label="Date: 2026-01-11 22:16:16 (UTC); Lines of Code: 29891; Version: v2.0.1" role="graphics-symbol" aria-roledescription="point" transform="translate(71.9930395976085,58.38857142857141)" d="M2.739,0A2.739,2.739,0,1,1,-2.739,0A2.739,2.739,0,1,1,2.739,0" fill="#4c78a8" stroke-width="2" opacity="1">
              <title>Date: 2026-01-11 22:16:16 (UTC); Lines of Code: 29891; Version: v2.0.1</title>
            </path>
            <path aria-label="Date: 2026-01-25 16:41:49 (UTC); Lines of Code: 29903; Version: v2.0.2" role="graphics-symbol" aria-roledescription="point" transform="translate(117.14561819809106,58.251428571428576)" d="M2.739,0A2.739,2.739,0,1,1,-2.739,0A2.739,2.739,0,1,1,2.739,0" fill="#4c78a8" stroke-width="2" opacity="1">
              <title>Date: 2026-01-25 16:41:49 (UTC); Lines of Code: 29903; Version: v2.0.2</title>
            </path>
            <path aria-label="Date: 2026-01-25 17:06:26 (UTC); Lines of Code: 29902; Version: v2.0.3" role="graphics-symbol" aria-roledescription="point" transform="translate(117.20168251794843,58.26285714285713)" d="M2.739,0A2.739,2.739,0,1,1,-2.739,0A2.739,2.739,0,1,1,2.739,0" fill="#4c78a8" stroke-width="2" opacity="1">
              <title>Date: 2026-01-25 17:06:26 (UTC); Lines of Code: 29902; Version: v2.0.3</title>
            </path>
            <path aria-label="Date: 2026-01-25 18:48:49 (UTC); Lines of Code: 29913; Version: v2.0.4" role="graphics-symbol" aria-roledescription="point" transform="translate(117.4348599836789,58.13714285714284)" d="M2.739,0A2.739,2.739,0,1,1,-2.739,0A2.739,2.739,0,1,1,2.739,0" fill="#4c78a8" stroke-width="2" opacity="1">
              <title>Date: 2026-01-25 18:48:49 (UTC); Lines of Code: 29913; Version: v2.0.4</title>
            </path>
            <path aria-label="Date: 2026-01-25 19:20:49 (UTC); Lines of Code: 29912; Version: v2.0.5" role="graphics-symbol" aria-roledescription="point" transform="translate(117.50773980366955,58.14857142857144)" d="M2.739,0A2.739,2.739,0,1,1,-2.739,0A2.739,2.739,0,1,1,2.739,0" fill="#4c78a8" stroke-width="2" opacity="1">
              <title>Date: 2026-01-25 19:20:49 (UTC); Lines of Code: 29912; Version: v2.0.5</title>
            </path>
            <path aria-label="Date: 2026-02-10 20:28:32 (UTC); Lines of Code: 29941; Version: v2.0.6" role="graphics-symbol" aria-roledescription="point" transform="translate(170.13543452433794,57.817142857142876)" d="M2.739,0A2.739,2.739,0,1,1,-2.739,0A2.739,2.739,0,1,1,2.739,0" fill="#4c78a8" stroke-width="2" opacity="1">
              <title>Date: 2026-02-10 20:28:32 (UTC); Lines of Code: 29941; Version: v2.0.6</title>
            </path>
            <path aria-label="Date: 2026-02-10 23:16:49 (UTC); Lines of Code: 29975; Version: v2.0.7" role="graphics-symbol" aria-roledescription="point" transform="translate(170.51869886936163,57.42857142857143)" d="M2.739,0A2.739,2.739,0,1,1,-2.739,0A2.739,2.739,0,1,1,2.739,0" fill="#4c78a8" stroke-width="2" opacity="1">
              <title>Date: 2026-02-10 23:16:49 (UTC); Lines of Code: 29975; Version: v2.0.7</title>
            </path>
            <path aria-label="Date: 2026-02-11 16:41:48 (UTC); Lines of Code: 29986; Version: v2.0.8" role="graphics-symbol" aria-roledescription="point" transform="translate(172.8986425326914,57.30285714285714)" d="M2.739,0A2.739,2.739,0,1,1,-2.739,0A2.739,2.739,0,1,1,2.739,0" fill="#4c78a8" stroke-width="2" opacity="1">
              <title>Date: 2026-02-11 16:41:48 (UTC); Lines of Code: 29986; Version: v2.0.8</title>
            </path>
            <path aria-label="Date: 2026-02-17 17:28:01 (UTC); Lines of Code: 30029; Version: v2.0.9" role="graphics-symbol" aria-roledescription="point" transform="translate(192.6814521285154,56.81142857142856)" d="M2.739,0A2.739,2.739,0,1,1,-2.739,0A2.739,2.739,0,1,1,2.739,0" fill="#4c78a8" stroke-width="2" opacity="1">
              <title>Date: 2026-02-17 17:28:01 (UTC); Lines of Code: 30029; Version: v2.0.9</title>
            </path>
            <path aria-label="Date: 2026-03-01 22:57:30 (UTC); Lines of Code: 30152; Version: v2.0.10" role="graphics-symbol" aria-roledescription="point" transform="translate(232.7869513616878,55.40571428571428)" d="M2.739,0A2.739,2.739,0,1,1,-2.739,0A2.739,2.739,0,1,1,2.739,0" fill="#4c78a8" stroke-width="2" opacity="1">
              <title>Date: 2026-03-01 22:57:30 (UTC); Lines of Code: 30152; Version: v2.0.10</title>
            </path>
            <path aria-label="Date: 2026-03-08 11:00:30 (UTC); Lines of Code: 30227; Version: v2.0.11" role="graphics-symbol" aria-roledescription="point" transform="translate(254.11113119207425,54.548571428571435)" d="M2.739,0A2.739,2.739,0,1,1,-2.739,0A2.739,2.739,0,1,1,2.739,0" fill="#4c78a8" stroke-width="2" opacity="1">
              <title>Date: 2026-03-08 11:00:30 (UTC); Lines of Code: 30227; Version: v2.0.11</title>
            </path>
            <path aria-label="Date: 2026-03-28 21:45:10 (UTC); Lines of Code: 30275; Version: v2.0.12" role="graphics-symbol" aria-roledescription="point" transform="translate(321.1711938905454,54)" d="M2.739,0A2.739,2.739,0,1,1,-2.739,0A2.739,2.739,0,1,1,2.739,0" fill="#4c78a8" stroke-width="2" opacity="1">
              <title>Date: 2026-03-28 21:45:10 (UTC); Lines of Code: 30275; Version: v2.0.12</title>
            </path>
            <path aria-label="Date: 2026-04-27 18:40:27 (UTC); Lines of Code: 30380; Version: v2.0.13" role="graphics-symbol" aria-roledescription="point" transform="translate(419.138259708662,52.800000000000004)" d="M2.739,0A2.739,2.739,0,1,1,-2.739,0A2.739,2.739,0,1,1,2.739,0" fill="#4c78a8" stroke-width="2" opacity="1">
              <title>Date: 2026-04-27 18:40:27 (UTC); Lines of Code: 30380; Version: v2.0.13</title>
            </path>
            <path aria-label="Date: 2026-05-02 10:28:19 (UTC); Lines of Code: 30401; Version: v2.0.14" role="graphics-symbol" aria-roledescription="point" transform="translate(434.4153883082834,52.55999999999999)" d="M2.739,0A2.739,2.739,0,1,1,-2.739,0A2.739,2.739,0,1,1,2.739,0" fill="#4c78a8" stroke-width="2" opacity="1">
              <title>Date: 2026-05-02 10:28:19 (UTC); Lines of Code: 30401; Version: v2.0.14</title>
            </path>
            <path aria-label="Date: 2026-05-06 17:37:32 (UTC); Lines of Code: 30418; Version: v2.0.15" role="graphics-symbol" aria-roledescription="point" transform="translate(448.51129445046263,52.365714285714304)" d="M2.739,0A2.739,2.739,0,1,1,-2.739,0A2.739,2.739,0,1,1,2.739,0" fill="#4c78a8" stroke-width="2" opacity="1">
              <title>Date: 2026-05-06 17:37:32 (UTC); Lines of Code: 30418; Version: v2.0.15</title>
            </path>
            <path aria-label="Date: 2026-05-10 11:44:46 (UTC); Lines of Code: 30428; Version: v2.0.16" role="graphics-symbol" aria-roledescription="point" transform="translate(460.8262379498603,52.25142857142857)" d="M2.739,0A2.739,2.739,0,1,1,-2.739,0A2.739,2.739,0,1,1,2.739,0" fill="#4c78a8" stroke-width="2" opacity="1">
              <title>Date: 2026-05-10 11:44:46 (UTC); Lines of Code: 30428; Version: v2.0.16</title>
            </path>
            <path aria-label="Date: 2026-05-23 06:55:08 (UTC); Lines of Code: 30425; Version: v2.0.17" role="graphics-symbol" aria-roledescription="point" transform="translate(502.8012943569905,52.28571428571427)" d="M2.739,0A2.739,2.739,0,1,1,-2.739,0A2.739,2.739,0,1,1,2.739,0" fill="#4c78a8" stroke-width="2" opacity="1">
              <title>Date: 2026-05-23 06:55:08 (UTC); Lines of Code: 30425; Version: v2.0.17</title>
            </path>
            <path aria-label="Date: 2026-06-04 23:00:49 (UTC); Lines of Code: 30426; Version: v2.0.18" role="graphics-symbol" aria-roledescription="point" transform="translate(544.3557355113518,52.27428571428572)" d="M2.739,0A2.739,2.739,0,1,1,-2.739,0A2.739,2.739,0,1,1,2.739,0" fill="#4c78a8" stroke-width="2" opacity="1">
              <title>Date: 2026-06-04 23:00:49 (UTC); Lines of Code: 30426; Version: v2.0.18</title>
            </path>
            <path aria-label="Date: 2026-06-06 12:02:24 (UTC); Lines of Code: 30447; Version: v2.0.19" role="graphics-symbol" aria-roledescription="point" transform="translate(549.4153790559625,52.0342857142857)" d="M2.739,0A2.739,2.739,0,1,1,-2.739,0A2.739,2.739,0,1,1,2.739,0" fill="#4c78a8" stroke-width="2" opacity="1">
              <title>Date: 2026-06-06 12:02:24 (UTC); Lines of Code: 30447; Version: v2.0.19</title>
            </path>
            <path aria-label="Date: 2026-06-13 14:01:42 (UTC); Lines of Code: 30493; Version: v2.0.20" role="graphics-symbol" aria-roledescription="point" transform="translate(572.6442274319168,51.508571428571415)" d="M2.739,0A2.739,2.739,0,1,1,-2.739,0A2.739,2.739,0,1,1,2.739,0" fill="#4c78a8" stroke-width="2" opacity="1">
              <title>Date: 2026-06-13 14:01:42 (UTC); Lines of Code: 30493; Version: v2.0.20</title>
            </path>
            <path aria-label="Date: 2026-06-13 22:32:57 (UTC); Lines of Code: 30558; Version: v2.0.21" role="graphics-symbol" aria-roledescription="point" transform="translate(573.808596430986,50.7657142857143)" d="M2.739,0A2.739,2.739,0,1,1,-2.739,0A2.739,2.739,0,1,1,2.739,0" fill="#4c78a8" stroke-width="2" opacity="1">
              <title>Date: 2026-06-13 22:32:57 (UTC); Lines of Code: 30558; Version: v2.0.21</title>
            </path>
            <path aria-label="Date: 2026-07-12 09:38:12 (UTC); Lines of Code: 30846; Version: v2.0.22" role="graphics-symbol" aria-roledescription="point" transform="translate(667.1522727519672,47.47428571428571)" d="M2.739,0A2.739,2.739,0,1,1,-2.739,0A2.739,2.739,0,1,1,2.739,0" fill="#4c78a8" stroke-width="2" opacity="1">
              <title>Date: 2026-07-12 09:38:12 (UTC); Lines of Code: 30846; Version: v2.0.22</title>
            </path>
            <path aria-label="Date: 2026-07-12 10:37:22 (UTC); Lines of Code: 30846; Version: v2.0.23" role="graphics-symbol" aria-roledescription="point" transform="translate(667.2870245024707,47.47428571428571)" d="M2.739,0A2.739,2.739,0,1,1,-2.739,0A2.739,2.739,0,1,1,2.739,0" fill="#4c78a8" stroke-width="2" opacity="1">
              <title>Date: 2026-07-12 10:37:22 (UTC); Lines of Code: 30846; Version: v2.0.23</title>
            </path>
            <path aria-label="Date: 2026-07-19 16:02:16 (UTC); Lines of Code: 30863; Version: v2.0.24" role="graphics-symbol" aria-roledescription="point" transform="translate(690.9841257218649,47.27999999999999)" d="M2.739,0A2.739,2.739,0,1,1,-2.739,0A2.739,2.739,0,1,1,2.739,0" fill="#4c78a8" stroke-width="2" opacity="1">
              <title>Date: 2026-07-19 16:02:16 (UTC); Lines of Code: 30863; Version: v2.0.24</title>
            </path>
            <path aria-label="Date: 2026-07-31 07:46:03 (UTC); Lines of Code: 30936; Version: v2.0.25" role="graphics-symbol" aria-roledescription="point" transform="translate(729.2090978498413,46.44571428571429)" d="M2.739,0A2.739,2.739,0,1,1,-2.739,0A2.739,2.739,0,1,1,2.739,0" fill="#4c78a8" stroke-width="2" opacity="1">
              <title>Date: 2026-07-31 07:46:03 (UTC); Lines of Code: 30936; Version: v2.0.25</title>
            </path>
            <path aria-label="Date: 2026-07-31 09:33:35 (UTC); Lines of Code: 31010; Version: v2.0.26" role="graphics-symbol" aria-roledescription="point" transform="translate(729.4540044116015,45.599999999999994)" d="M2.739,0A2.739,2.739,0,1,1,-2.739,0A2.739,2.739,0,1,1,2.739,0" fill="#4c78a8" stroke-width="2" opacity="1">
              <title>Date: 2026-07-31 09:33:35 (UTC); Lines of Code: 31010; Version: v2.0.26</title>
            </path>
            <path aria-label="Date: 2026-08-08 10:21:54 (UTC); Lines of Code: 31505; Version: v2.0.27" role="graphics-symbol" aria-roledescription="point" transform="translate(755.8007805447701,39.94285714285715)" d="M2.739,0A2.739,2.739,0,1,1,-2.739,0A2.739,2.739,0,1,1,2.739,0" fill="#4c78a8" stroke-width="2" opacity="1">
              <title>Date: 2026-08-08 10:21:54 (UTC); Lines of Code: 31505; Version: v2.0.27</title>
            </path>
            <path aria-label="Date: 2026-08-16 20:37:49 (UTC); Lines of Code: 31595; Version: v2.0.28" role="graphics-symbol" aria-roledescription="point" transform="translate(783.4402624850225,38.914285714285725)" d="M2.739,0A2.739,2.739,0,1,1,-2.739,0A2.739,2.739,0,1,1,2.739,0" fill="#4c78a8" stroke-width="2" opacity="1">
              <title>Date: 2026-08-16 20:37:49 (UTC); Lines of Code: 31595; Version: v2.0.28</title>
            </path>
            <path aria-label="Date: 2026-08-17 22:16:32 (UTC); Lines of Code: 31899; Version: v2.0.29" role="graphics-symbol" aria-roledescription="point" transform="translate(786.9446810376245,35.440000000000005)" d="M2.739,0A2.739,2.739,0,1,1,-2.739,0A2.739,2.739,0,1,1,2.739,0" fill="#4c78a8" stroke-width="2" opacity="1">
              <title>Date: 2026-08-17 22:16:32 (UTC); Lines of Code: 31899; Version: v2.0.29</title>
            </path>
            <path aria-label="Date: 2026-08-18 16:53:47 (UTC); Lines of Code: 33572; Version: v2.0.30" role="graphics-symbol" aria-roledescription="point" transform="translate(789.4892116277665,16.31999999999998)" d="M2.739,0A2.739,2.739,0,1,1,-2.739,0A2.739,2.739,0,1,1,2.739,0" fill="#4c78a8" stroke-width="2" opacity="1">
              <title>Date: 2026-08-18 16:53:47 (UTC); Lines of Code: 33572; Version: v2.0.30</title>
            </path>
            <path aria-label="Date: 2026-08-21 15:28:03 (UTC); Lines of Code: 34073; Version: v2.0.31" role="graphics-symbol" aria-roledescription="point" transform="translate(799.1327301421114,10.594285714285734)" d="M2.739,0A2.739,2.739,0,1,1,-2.739,0A2.739,2.739,0,1,1,2.739,0" fill="#4c78a8" stroke-width="2" opacity="1">
              <title>Date: 2026-08-21 15:28:03 (UTC); Lines of Code: 34073; Version: v2.0.31</title>
            </path>
            <path aria-label="Date: 2026-08-21 21:48:51 (UTC); Lines of Code: 34216; Version: v2.0.32" role="graphics-symbol" aria-roledescription="point" transform="translate(800,8.95999999999999)" d="M2.739,0A2.739,2.739,0,1,1,-2.739,0A2.739,2.739,0,1,1,2.739,0" fill="#4c78a8" stroke-width="2" opacity="1">
              <title>Date: 2026-08-21 21:48:51 (UTC); Lines of Code: 34216; Version: v2.0.32</title>
            </path>
          </g>
        </g>
        <path class="foreground" aria-hidden="true" d="" display="none" />
      </g>
    </g>
  </g>
</svg>
