<?xml version='1.0' encoding='utf-8'?>
<svg xmlns="http://www.w3.org/2000/svg" version="1.1" class="marks" width="924" height="586" viewBox="0 0 924 586">
  <rect width="924" height="586" fill="white" />
  <g fill="none" stroke-miterlimit="4" transform="translate(115,10)">
    <g class="mark-group role-frame root" role="graphics-object" aria-roledescription="group mark container">
      <g transform="translate(0,0)">
        <path class="background" aria-hidden="true" d="M0.5,0.5h800v400h-800Z" stroke="#ddd" />
        <g>
          <g class="mark-group role-axis" aria-hidden="true">
            <g transform="translate(0.5,400.5)">
              <path class="background" aria-hidden="true" d="M0,0h0v0h0Z" pointer-events="none" />
              <g>
                <g class="mark-rule role-axis-grid" pointer-events="none">
                  <line transform="translate(32,-400)" x2="0" y2="400" stroke="#ddd" stroke-width="1" opacity="1" />
                  <line transform="translate(120,-400)" x2="0" y2="400" stroke="#ddd" stroke-width="1" opacity="1" />
                  <line transform="translate(200,-400)" x2="0" y2="400" stroke="#ddd" stroke-width="1" opacity="1" />
                  <line transform="translate(289,-400)" x2="0" y2="400" stroke="#ddd" stroke-width="1" opacity="1" />
                  <line transform="translate(375,-400)" x2="0" y2="400" stroke="#ddd" stroke-width="1" opacity="1" />
                  <line transform="translate(464,-400)" x2="0" y2="400" stroke="#ddd" stroke-width="1" opacity="1" />
                  <line transform="translate(549,-400)" x2="0" y2="400" stroke="#ddd" stroke-width="1" opacity="1" />
                  <line transform="translate(638,-400)" x2="0" y2="400" stroke="#ddd" stroke-width="1" opacity="1" />
                  <line transform="translate(727,-400)" x2="0" y2="400" stroke="#ddd" stroke-width="1" opacity="1" />
                </g>
              </g>
              <path class="foreground" aria-hidden="true" d="" pointer-events="none" display="none" />
            </g>
          </g>
          <g class="mark-group role-axis" aria-hidden="true">
            <g transform="translate(0.5,0.5)">
              <path class="background" aria-hidden="true" d="M0,0h0v0h0Z" pointer-events="none" />
              <g>
                <g class="mark-rule role-axis-grid" pointer-events="none">
                  <line transform="translate(0,400)" x2="800" y2="0" stroke="#ddd" stroke-width="1" opacity="1" />
                  <line transform="translate(0,350)" x2="800" y2="0" stroke="#ddd" stroke-width="1" opacity="1" />
                  <line transform="translate(0,300)" x2="800" y2="0" stroke="#ddd" stroke-width="1" opacity="1" />
                  <line transform="translate(0,250)" x2="800" y2="0" stroke="#ddd" stroke-width="1" opacity="1" />
                  <line transform="translate(0,200)" x2="800" y2="0" stroke="#ddd" stroke-width="1" opacity="1" />
                  <line transform="translate(0,150)" x2="800" y2="0" stroke="#ddd" stroke-width="1" opacity="1" />
                  <line transform="translate(0,100)" x2="800" y2="0" stroke="#ddd" stroke-width="1" opacity="1" />
                  <line transform="translate(0,50)" x2="800" y2="0" stroke="#ddd" stroke-width="1" opacity="1" />
                  <line transform="translate(0,0)" x2="800" y2="0" stroke="#ddd" stroke-width="1" opacity="1" />
                </g>
              </g>
              <path class="foreground" aria-hidden="true" d="" pointer-events="none" display="none" />
            </g>
          </g>
          <g class="mark-group role-axis" role="graphics-symbol" aria-roledescription="axis" aria-label="X-axis titled 'Date' for a utc scale with values from 2025-12-20 23:25:38 (UTC) to 2026-09-26 14:26:36 (UTC)">
            <g transform="translate(0.5,400.5)">
              <path class="background" aria-hidden="true" d="M0,0h0v0h0Z" pointer-events="none" />
              <g>
                <g class="mark-rule role-axis-tick" pointer-events="none">
                  <line transform="translate(32,0)" x2="0" y2="5" stroke="#888" stroke-width="1" opacity="1" />
                  <line transform="translate(120,0)" x2="0" y2="5" stroke="#888" stroke-width="1" opacity="1" />
                  <line transform="translate(200,0)" x2="0" y2="5" stroke="#888" stroke-width="1" opacity="1" />
                  <line transform="translate(289,0)" x2="0" y2="5" stroke="#888" stroke-width="1" opacity="1" />
                  <line transform="translate(375,0)" x2="0" y2="5" stroke="#888" stroke-width="1" opacity="1" />
                  <line transform="translate(464,0)" x2="0" y2="5" stroke="#888" stroke-width="1" opacity="1" />
                  <line transform="translate(549,0)" x2="0" y2="5" stroke="#888" stroke-width="1" opacity="1" />
                  <line transform="translate(638,0)" x2="0" y2="5" stroke="#888" stroke-width="1" opacity="1" />
                  <line transform="translate(727,0)" x2="0" y2="5" stroke="#888" stroke-width="1" opacity="1" />
                </g>
                <g class="mark-text role-axis-label" pointer-events="none">
                  <text text-anchor="end" transform="translate(31.538923274493374,7) rotate(315) translate(0,8)" font-family="sans-serif" font-size="10px" fill="#000" opacity="1">2026-01-01 00:00:00 (UTC)</text>
                  <text text-anchor="end" transform="translate(120.22892045905618,7) rotate(315) translate(0,8)" font-family="sans-serif" font-size="10px" fill="#000" opacity="0">2026-02-01 00:00:00 (UTC)</text>
                  <text text-anchor="end" transform="translate(200.33601469027417,7) rotate(315) translate(0,8)" font-family="sans-serif" font-size="10px" fill="#000" opacity="1">2026-03-01 00:00:00 (UTC)</text>
                  <text text-anchor="end" transform="translate(289.02601187483697,7) rotate(315) translate(0,8)" font-family="sans-serif" font-size="10px" fill="#000" opacity="0">2026-04-01 00:00:00 (UTC)</text>
                  <text text-anchor="end" transform="translate(374.8550414082848,7) rotate(315) translate(0,8)" font-family="sans-serif" font-size="10px" fill="#000" opacity="1">2026-05-01 00:00:00 (UTC)</text>
                  <text text-anchor="end" transform="translate(463.5450385928476,7) rotate(315) translate(0,8)" font-family="sans-serif" font-size="10px" fill="#000" opacity="0">2026-06-01 00:00:00 (UTC)</text>
                  <text text-anchor="end" transform="translate(549.3740681262955,7) rotate(315) translate(0,8)" font-family="sans-serif" font-size="10px" fill="#000" opacity="1">2026-07-01 00:00:00 (UTC)</text>
                  <text text-anchor="end" transform="translate(638.0640653108583,7) rotate(315) translate(0,8)" font-family="sans-serif" font-size="10px" fill="#000" opacity="0">2026-08-01 00:00:00 (UTC)</text>
                  <text text-anchor="end" transform="translate(726.7540624954211,7) rotate(315) translate(0,8)" font-family="sans-serif" font-size="10px" fill="#000" opacity="1">2026-09-01 00:00:00 (UTC)</text>
                </g>
                <g class="mark-rule role-axis-domain" pointer-events="none">
                  <line transform="translate(0,0)" x2="800" y2="0" stroke="#888" stroke-width="1" opacity="1" />
                </g>
                <g class="mark-text role-axis-title" pointer-events="none">
                  <text text-anchor="middle" transform="translate(400,168.49242404917504)" font-family="sans-serif" font-size="11px" font-weight="bold" fill="#000" opacity="1">Date</text>
                </g>
              </g>
              <path class="foreground" aria-hidden="true" d="" pointer-events="none" display="none" />
            </g>
          </g>
          <g class="mark-group role-axis" role="graphics-symbol" aria-roledescription="axis" aria-label="Y-axis titled 'Lines of Code' for a linear scale with values from 0 to 40,000">
            <g transform="translate(0.5,0.5)">
              <path class="background" aria-hidden="true" d="M0,0h0v0h0Z" pointer-events="none" />
              <g>
                <g class="mark-rule role-axis-tick" pointer-events="none">
                  <line transform="translate(0,400)" x2="-5" y2="0" stroke="#888" stroke-width="1" opacity="1" />
                  <line transform="translate(0,350)" x2="-5" y2="0" stroke="#888" stroke-width="1" opacity="1" />
                  <line transform="translate(0,300)" x2="-5" y2="0" stroke="#888" stroke-width="1" opacity="1" />
                  <line transform="translate(0,250)" x2="-5" y2="0" stroke="#888" stroke-width="1" opacity="1" />
                  <line transform="translate(0,200)" x2="-5" y2="0" stroke="#888" stroke-width="1" opacity="1" />
                  <line transform="translate(0,150)" x2="-5" y2="0" stroke="#888" stroke-width="1" opacity="1" />
                  <line transform="translate(0,100)" x2="-5" y2="0" stroke="#888" stroke-width="1" opacity="1" />
                  <line transform="translate(0,50)" x2="-5" y2="0" stroke="#888" stroke-width="1" opacity="1" />
                  <line transform="translate(0,0)" x2="-5" y2="0" stroke="#888" stroke-width="1" opacity="1" />
                </g>
                <g class="mark-text role-axis-label" pointer-events="none">
                  <text text-anchor="end" transform="translate(-7,403)" font-family="sans-serif" font-size="10px" fill="#000" opacity="1">0</text>
                  <text text-anchor="end" transform="translate(-7,353)" font-family="sans-serif" font-size="10px" fill="#000" opacity="1">5,000</text>
                  <text text-anchor="end" transform="translate(-7,303)" font-family="sans-serif" font-size="10px" fill="#000" opacity="1">10,000</text>
                  <text text-anchor="end" transform="translate(-7,253)" font-family="sans-serif" font-size="10px" fill="#000" opacity="1">15,000</text>
                  <text text-anchor="end" transform="translate(-7,203)" font-family="sans-serif" font-size="10px" fill="#000" opacity="1">20,000</text>
                  <text text-anchor="end" transform="translate(-7,153)" font-family="sans-serif" font-size="10px" fill="#000" opacity="1">25,000</text>
                  <text text-anchor="end" transform="translate(-7,103)" font-family="sans-serif" font-size="10px" fill="#000" opacity="1">30,000</text>
                  <text text-anchor="end" transform="translate(-7,53)" font-family="sans-serif" font-size="10px" fill="#000" opacity="1">35,000</text>
                  <text text-anchor="end" transform="translate(-7,3)" font-family="sans-serif" font-size="10px" fill="#000" opacity="1">40,000</text>
                </g>
                <g class="mark-rule role-axis-domain" pointer-events="none">
                  <line transform="translate(0,400)" x2="0" y2="-400" stroke="#888" stroke-width="1" opacity="1" />
                </g>
                <g class="mark-text role-axis-title" pointer-events="none">
                  <text text-anchor="middle" transform="translate(-59,200) rotate(-90) translate(0,-2)" font-family="sans-serif" font-size="11px" font-weight="bold" fill="#000" opacity="1">Lines of Code</text>
                </g>
              </g>
              <path class="foreground" aria-hidden="true" d="" pointer-events="none" display="none" />
            </g>
          </g>
          <g class="mark-line role-mark layer_0_marks" role="graphics-object" aria-roledescription="line mark container">
            <path aria-label="Date: 2025-12-20 23:25:38 (UTC); Lines of Code: 29766; Version: v1.0.1" role="graphics-symbol" aria-roledescription="line mark" d="M0,102.34L2.837,102.3L10.302,102.48L36.86,102.12L62.75,102.12L62.803,101.09L102.193,100.97L102.241,100.98L102.445,100.87L102.508,100.88L148.418,100.59L148.753,100.25L150.829,100.14L168.087,99.71L203.073,98.48L221.675,97.73L280.175,97.25L365.637,96.2L378.964,95.99L391.261,95.82L402.004,95.72L438.621,95.75L474.871,95.74L479.285,95.53L499.549,95.07L500.565,94.42L581.993,91.54L582.111,91.54L602.783,91.37L636.129,90.64L636.343,89.9L659.326,84.95L683.438,84.05L686.495,81.01L688.715,64.28L697.127,59.27L697.884,57.84L699.135,57.8L760.2,55.82L766.323,49.56L778.008,47.76L799.078,47.53L800,45.48" stroke="#4c78a8" stroke-width="2" />
          </g>
          <g class="mark-symbol role-mark layer_1_marks" role="graphics-object" aria-roledescription="symbol mark container">
            <path aria-label="Date: 2025-12-20 23:25:38 (UTC); Lines of Code: 29766; Version: v1.0.1" role="graphics-symbol" aria-roledescription="point" transform="translate(0,102.34)" d="M2.739,0A2.739,2.739,0,1,1,-2.739,0A2.739,2.739,0,1,1,2.739,0" fill="#4c78a8" stroke-width="2" opacity="1">
              <title>Date: 2025-12-20 23:25:38 (UTC); Lines of Code: 29766; Version: v1.0.1</title>
            </path>
            <path aria-label="Date: 2025-12-21 23:13:34 (UTC); Lines of Code: 29770; Version: v1.0.2" role="graphics-symbol" aria-roledescription="point" transform="translate(2.8369938018162344,102.30000000000001)" d="M2.739,0A2.739,2.739,0,1,1,-2.739,0A2.739,2.739,0,1,1,2.739,0" fill="#4c78a8" stroke-width="2" opacity="1">
              <title>Date: 2025-12-21 23:13:34 (UTC); Lines of Code: 29770; Version: v1.0.2</title>
            </path>
            <path aria-label="Date: 2025-12-24 13:51:02 (UTC); Lines of Code: 29752; Version: v1.0.3" role="graphics-symbol" aria-roledescription="point" transform="translate(10.302265040341217,102.47999999999999)" d="M2.739,0A2.739,2.739,0,1,1,-2.739,0A2.739,2.739,0,1,1,2.739,0" fill="#4c78a8" stroke-width="2" opacity="1">
              <title>Date: 2025-12-24 13:51:02 (UTC); Lines of Code: 29752; Version: v1.0.3</title>
            </path>
            <path aria-label="Date: 2026-01-02 20:38:20 (UTC); Lines of Code: 29788; Version: v1.0.4" role="graphics-symbol" aria-roledescription="point" transform="translate(36.860190653361066,102.11999999999999)" d="M2.739,0A2.739,2.739,0,1,1,-2.739,0A2.739,2.739,0,1,1,2.739,0" fill="#4c78a8" stroke-width="2" opacity="1">
              <title>Date: 2026-01-02 20:38:20 (UTC); Lines of Code: 29788; Version: v1.0.4</title>
            </path>
            <path aria-label="Date: 2026-01-11 21:49:25 (UTC); Lines of Code: 29788; Version: v2.0.0" role="graphics-symbol" aria-roledescription="point" transform="translate(62.75012667811771,102.11999999999999)" d="M2.739,0A2.739,2.739,0,1,1,-2.739,0A2.739,2.739,0,1,1,2.739,0" fill="#4c78a8" stroke-width="2" opacity="1">
              <title>Date: 2026-01-11 21:49:25 (UTC); Lines of Code: 29788; Version: v2.0.0</title>
            </path>
            <path aria-label="Date: 2026-01-11 22:16:16 (UTC); Lines of Code: 29891; Version: v2.0.1" role="graphics-symbol" aria-roledescription="point" transform="translate(62.803471804112455,101.08999999999999)" d="M2.739,0A2.739,2.739,0,1,1,-2.739,0A2.739,2.739,0,1,1,2.739,0" fill="#4c78a8" stroke-width="2" opacity="1">
              <title>Date: 2026-01-11 22:16:16 (UTC); Lines of Code: 29891; Version: v2.0.1</title>
            </path>
            <path aria-label="Date: 2026-01-25 16:41:49 (UTC); Lines of Code: 29903; Version: v2.0.2" role="graphics-symbol" aria-roledescription="point" transform="translate(102.19253931491912,100.97)" d="M2.739,0A2.739,2.739,0,1,1,-2.739,0A2.739,2.739,0,1,1,2.739,0" fill="#4c78a8" stroke-width="2" opacity="1">
              <title>Date: 2026-01-25 16:41:49 (UTC); Lines of Code: 29903; Version: v2.0.2</title>
            </path>
            <path aria-label="Date: 2026-01-25 17:06:26 (UTC); Lines of Code: 29902; Version: v2.0.3" role="graphics-symbol" aria-roledescription="point" transform="translate(102.2414472920105,100.97999999999998)" d="M2.739,0A2.739,2.739,0,1,1,-2.739,0A2.739,2.739,0,1,1,2.739,0" fill="#4c78a8" stroke-width="2" opacity="1">
              <title>Date: 2026-01-25 17:06:26 (UTC); Lines of Code: 29902; Version: v2.0.3</title>
            </path>
            <path aria-label="Date: 2026-01-25 18:48:49 (UTC); Lines of Code: 29913; Version: v2.0.4" role="graphics-symbol" aria-roledescription="point" transform="translate(102.44486076748271,100.87000000000002)" d="M2.739,0A2.739,2.739,0,1,1,-2.739,0A2.739,2.739,0,1,1,2.739,0" fill="#4c78a8" stroke-width="2" opacity="1">
              <title>Date: 2026-01-25 18:48:49 (UTC); Lines of Code: 29913; Version: v2.0.4</title>
            </path>
            <path aria-label="Date: 2026-01-25 19:20:49 (UTC); Lines of Code: 29912; Version: v2.0.5" role="graphics-symbol" aria-roledescription="point" transform="translate(102.50843782639637,100.88)" d="M2.739,0A2.739,2.739,0,1,1,-2.739,0A2.739,2.739,0,1,1,2.739,0" fill="#4c78a8" stroke-width="2" opacity="1">
              <title>Date: 2026-01-25 19:20:49 (UTC); Lines of Code: 29912; Version: v2.0.5</title>
            </path>
            <path aria-label="Date: 2026-02-10 20:28:32 (UTC); Lines of Code: 29941; Version: v2.0.6" role="graphics-symbol" aria-roledescription="point" transform="translate(148.41845857255097,100.59)" d="M2.739,0A2.739,2.739,0,1,1,-2.739,0A2.739,2.739,0,1,1,2.739,0" fill="#4c78a8" stroke-width="2" opacity="1">
              <title>Date: 2026-02-10 20:28:32 (UTC); Lines of Code: 29941; Version: v2.0.6</title>
            </path>
            <path aria-label="Date: 2026-02-10 23:16:49 (UTC); Lines of Code: 29975; Version: v2.0.7" role="graphics-symbol" aria-roledescription="point" transform="translate(148.75280105372352,100.25)" d="M2.739,0A2.739,2.739,0,1,1,-2.739,0A2.739,2.739,0,1,1,2.739,0" fill="#4c78a8" stroke-width="2" opacity="1">
              <title>Date: 2026-02-10 23:16:49 (UTC); Lines of Code: 29975; Version: v2.0.7</title>
            </path>
            <path aria-label="Date: 2026-02-11 16:41:48 (UTC); Lines of Code: 29986; Version: v2.0.8" role="graphics-symbol" aria-roledescription="point" transform="translate(150.82895627082138,100.13999999999999)" d="M2.739,0A2.739,2.739,0,1,1,-2.739,0A2.739,2.739,0,1,1,2.739,0" fill="#4c78a8" stroke-width="2" opacity="1">
              <title>Date: 2026-02-11 16:41:48 (UTC); Lines of Code: 29986; Version: v2.0.8</title>
            </path>
            <path aria-label="Date: 2026-02-17 17:28:01 (UTC); Lines of Code: 30029; Version: v2.0.9" role="graphics-symbol" aria-roledescription="point" transform="translate(168.08658466936907,99.71000000000001)" d="M2.739,0A2.739,2.739,0,1,1,-2.739,0A2.739,2.739,0,1,1,2.739,0" fill="#4c78a8" stroke-width="2" opacity="1">
              <title>Date: 2026-02-17 17:28:01 (UTC); Lines of Code: 30029; Version: v2.0.9</title>
            </path>
            <path aria-label="Date: 2026-03-01 22:57:30 (UTC); Lines of Code: 30152; Version: v2.0.10" role="graphics-symbol" aria-roledescription="point" transform="translate(203.07280839819833,98.47999999999999)" d="M2.739,0A2.739,2.739,0,1,1,-2.739,0A2.739,2.739,0,1,1,2.739,0" fill="#4c78a8" stroke-width="2" opacity="1">
              <title>Date: 2026-03-01 22:57:30 (UTC); Lines of Code: 30152; Version: v2.0.10</title>
            </path>
            <path aria-label="Date: 2026-03-08 11:00:30 (UTC); Lines of Code: 30227; Version: v2.0.11" role="graphics-symbol" aria-roledescription="point" transform="translate(221.67505847971856,97.73)" d="M2.739,0A2.739,2.739,0,1,1,-2.739,0A2.739,2.739,0,1,1,2.739,0" fill="#4c78a8" stroke-width="2" opacity="1">
              <title>Date: 2026-03-08 11:00:30 (UTC); Lines of Code: 30227; Version: v2.0.11</title>
            </path>
            <path aria-label="Date: 2026-03-28 21:45:10 (UTC); Lines of Code: 30275; Version: v2.0.12" role="graphics-symbol" aria-roledescription="point" transform="translate(280.1752243347154,97.25000000000001)" d="M2.739,0A2.739,2.739,0,1,1,-2.739,0A2.739,2.739,0,1,1,2.739,0" fill="#4c78a8" stroke-width="2" opacity="1">
              <title>Date: 2026-03-28 21:45:10 (UTC); Lines of Code: 30275; Version: v2.0.12</title>
            </path>
            <path aria-label="Date: 2026-04-27 18:40:27 (UTC); Lines of Code: 30380; Version: v2.0.13" role="graphics-symbol" aria-roledescription="point" transform="translate(365.6372619181944,96.20000000000002)" d="M2.739,0A2.739,2.739,0,1,1,-2.739,0A2.739,2.739,0,1,1,2.739,0" fill="#4c78a8" stroke-width="2" opacity="1">
              <title>Date: 2026-04-27 18:40:27 (UTC); Lines of Code: 30380; Version: v2.0.13</title>
            </path>
            <path aria-label="Date: 2026-05-02 10:28:19 (UTC); Lines of Code: 30401; Version: v2.0.14" role="graphics-symbol" aria-roledescription="point" transform="translate(378.96433798855924,95.99000000000002)" d="M2.739,0A2.739,2.739,0,1,1,-2.739,0A2.739,2.739,0,1,1,2.739,0" fill="#4c78a8" stroke-width="2" opacity="1">
              <title>Date: 2026-05-02 10:28:19 (UTC); Lines of Code: 30401; Version: v2.0.14</title>
            </path>
            <path aria-label="Date: 2026-05-06 17:37:32 (UTC); Lines of Code: 30418; Version: v2.0.15" role="graphics-symbol" aria-roledescription="point" transform="translate(391.26096900875,95.82000000000002)" d="M2.739,0A2.739,2.739,0,1,1,-2.739,0A2.739,2.739,0,1,1,2.739,0" fill="#4c78a8" stroke-width="2" opacity="1">
              <title>Date: 2026-05-06 17:37:32 (UTC); Lines of Code: 30418; Version: v2.0.15</title>
            </path>
            <path aria-label="Date: 2026-05-10 11:44:46 (UTC); Lines of Code: 30428; Version: v2.0.16" role="graphics-symbol" aria-roledescription="point" transform="translate(402.00396876478965,95.71999999999998)" d="M2.739,0A2.739,2.739,0,1,1,-2.739,0A2.739,2.739,0,1,1,2.739,0" fill="#4c78a8" stroke-width="2" opacity="1">
              <title>Date: 2026-05-10 11:44:46 (UTC); Lines of Code: 30428; Version: v2.0.16</title>
            </path>
            <path aria-label="Date: 2026-05-23 06:55:08 (UTC); Lines of Code: 30425; Version: v2.0.17" role="graphics-symbol" aria-roledescription="point" transform="translate(438.621109620012,95.75)" d="M2.739,0A2.739,2.739,0,1,1,-2.739,0A2.739,2.739,0,1,1,2.739,0" fill="#4c78a8" stroke-width="2" opacity="1">
              <title>Date: 2026-05-23 06:55:08 (UTC); Lines of Code: 30425; Version: v2.0.17</title>
            </path>
            <path aria-label="Date: 2026-06-04 23:00:49 (UTC); Lines of Code: 30426; Version: v2.0.18" role="graphics-symbol" aria-roledescription="point" transform="translate(474.87132475136855,95.73999999999998)" d="M2.739,0A2.739,2.739,0,1,1,-2.739,0A2.739,2.739,0,1,1,2.739,0" fill="#4c78a8" stroke-width="2" opacity="1">
              <title>Date: 2026-06-04 23:00:49 (UTC); Lines of Code: 30426; Version: v2.0.18</title>
            </path>
            <path aria-label="Date: 2026-06-06 12:02:24 (UTC); Lines of Code: 30447; Version: v2.0.19" role="graphics-symbol" aria-roledescription="point" transform="translate(479.2851289533982,95.52999999999999)" d="M2.739,0A2.739,2.739,0,1,1,-2.739,0A2.739,2.739,0,1,1,2.739,0" fill="#4c78a8" stroke-width="2" opacity="1">
              <title>Date: 2026-06-06 12:02:24 (UTC); Lines of Code: 30447; Version: v2.0.19</title>
            </path>
            <path aria-label="Date: 2026-06-13 14:01:42 (UTC); Lines of Code: 30493; Version: v2.0.20" role="graphics-symbol" aria-roledescription="point" transform="translate(499.5489257339653,95.07)" d="M2.739,0A2.739,2.739,0,1,1,-2.739,0A2.739,2.739,0,1,1,2.739,0" fill="#4c78a8" stroke-width="2" opacity="1">
              <title>Date: 2026-06-13 14:01:42 (UTC); Lines of Code: 30493; Version: v2.0.20</title>
            </path>
            <path aria-label="Date: 2026-06-13 22:32:57 (UTC); Lines of Code: 30558; Version: v2.0.21" role="graphics-symbol" aria-roledescription="point" transform="translate(500.5646685892656,94.41999999999999)" d="M2.739,0A2.739,2.739,0,1,1,-2.739,0A2.739,2.739,0,1,1,2.739,0" fill="#4c78a8" stroke-width="2" opacity="1">
              <title>Date: 2026-06-13 22:32:57 (UTC); Lines of Code: 30558; Version: v2.0.21</title>
            </path>
            <path aria-label="Date: 2026-07-12 09:38:12 (UTC); Lines of Code: 30846; Version: v2.0.22" role="graphics-symbol" aria-roledescription="point" transform="translate(581.993470271806,91.53999999999999)" d="M2.739,0A2.739,2.739,0,1,1,-2.739,0A2.739,2.739,0,1,1,2.739,0" fill="#4c78a8" stroke-width="2" opacity="1">
              <title>Date: 2026-07-12 09:38:12 (UTC); Lines of Code: 30846; Version: v2.0.22</title>
            </path>
            <path aria-label="Date: 2026-07-12 10:37:22 (UTC); Lines of Code: 30846; Version: v2.0.23" role="graphics-symbol" aria-roledescription="point" transform="translate(582.1110216046932,91.53999999999999)" d="M2.739,0A2.739,2.739,0,1,1,-2.739,0A2.739,2.739,0,1,1,2.739,0" fill="#4c78a8" stroke-width="2" opacity="1">
              <title>Date: 2026-07-12 10:37:22 (UTC); Lines of Code: 30846; Version: v2.0.23</title>
            </path>
            <path aria-label="Date: 2026-07-19 16:02:16 (UTC); Lines of Code: 30863; Version: v2.0.24" role="graphics-symbol" aria-roledescription="point" transform="translate(602.7833009887805,91.36999999999999)" d="M2.739,0A2.739,2.739,0,1,1,-2.739,0A2.739,2.739,0,1,1,2.739,0" fill="#4c78a8" stroke-width="2" opacity="1">
              <title>Date: 2026-07-19 16:02:16 (UTC); Lines of Code: 30863; Version: v2.0.24</title>
            </path>
            <path aria-label="Date: 2026-07-31 07:46:03 (UTC); Lines of Code: 30936; Version: v2.0.25" role="graphics-symbol" aria-roledescription="point" transform="translate(636.1290379193282,90.64000000000001)" d="M2.739,0A2.739,2.739,0,1,1,-2.739,0A2.739,2.739,0,1,1,2.739,0" fill="#4c78a8" stroke-width="2" opacity="1">
              <title>Date: 2026-07-31 07:46:03 (UTC); Lines of Code: 30936; Version: v2.0.25</title>
            </path>
            <path aria-label="Date: 2026-07-31 09:33:35 (UTC); Lines of Code: 31010; Version: v2.0.26" role="graphics-symbol" aria-roledescription="point" transform="translate(636.3426833277192,89.9)" d="M2.739,0A2.739,2.739,0,1,1,-2.739,0A2.739,2.739,0,1,1,2.739,0" fill="#4c78a8" stroke-width="2" opacity="1">
              <title>Date: 2026-07-31 09:33:35 (UTC); Lines of Code: 31010; Version: v2.0.26</title>
            </path>
            <path aria-label="Date: 2026-08-08 10:21:54 (UTC); Lines of Code: 31505; Version: v2.0.27" role="graphics-symbol" aria-roledescription="point" transform="translate(659.326419272988,84.94999999999999)" d="M2.739,0A2.739,2.739,0,1,1,-2.739,0A2.739,2.739,0,1,1,2.739,0" fill="#4c78a8" stroke-width="2" opacity="1">
              <title>Date: 2026-08-08 10:21:54 (UTC); Lines of Code: 31505; Version: v2.0.27</title>
            </path>
            <path aria-label="Date: 2026-08-16 20:37:49 (UTC); Lines of Code: 31595; Version: v2.0.28" role="graphics-symbol" aria-roledescription="point" transform="translate(683.437853300738,84.05)" d="M2.739,0A2.739,2.739,0,1,1,-2.739,0A2.739,2.739,0,1,1,2.739,0" fill="#4c78a8" stroke-width="2" opacity="1">
              <title>Date: 2026-08-16 20:37:49 (UTC); Lines of Code: 31595; Version: v2.0.28</title>
            </path>
            <path aria-label="Date: 2026-08-17 22:16:32 (UTC); Lines of Code: 31899; Version: v2.0.29" role="graphics-symbol" aria-roledescription="point" transform="translate(686.4949495559913,81.00999999999998)" d="M2.739,0A2.739,2.739,0,1,1,-2.739,0A2.739,2.739,0,1,1,2.739,0" fill="#4c78a8" stroke-width="2" opacity="1">
              <title>Date: 2026-08-17 22:16:32 (UTC); Lines of Code: 31899; Version: v2.0.29</title>
            </path>
            <path aria-label="Date: 2026-08-18 16:53:47 (UTC); Lines of Code: 33572; Version: v2.0.30" role="graphics-symbol" aria-roledescription="point" transform="translate(688.7146829644691,64.27999999999999)" d="M2.739,0A2.739,2.739,0,1,1,-2.739,0A2.739,2.739,0,1,1,2.739,0" fill="#4c78a8" stroke-width="2" opacity="1">
              <title>Date: 2026-08-18 16:53:47 (UTC); Lines of Code: 33572; Version: v2.0.30</title>
            </path>
            <path aria-label="Date: 2026-08-21 15:28:03 (UTC); Lines of Code: 34073; Version: v2.0.31" role="graphics-symbol" aria-roledescription="point" transform="translate(697.1272523808077,59.26999999999998)" d="M2.739,0A2.739,2.739,0,1,1,-2.739,0A2.739,2.739,0,1,1,2.739,0" fill="#4c78a8" stroke-width="2" opacity="1">
              <title>Date: 2026-08-21 15:28:03 (UTC); Lines of Code: 34073; Version: v2.0.31</title>
            </path>
            <path aria-label="Date: 2026-08-21 21:48:51 (UTC); Lines of Code: 34216; Version: v2.0.32" role="graphics-symbol" aria-roledescription="point" transform="translate(697.8838193818804,57.83999999999998)" d="M2.739,0A2.739,2.739,0,1,1,-2.739,0A2.739,2.739,0,1,1,2.739,0" fill="#4c78a8" stroke-width="2" opacity="1">
              <title>Date: 2026-08-21 21:48:51 (UTC); Lines of Code: 34216; Version: v2.0.32</title>
            </path>
            <path aria-label="Date: 2026-08-22 08:18:42 (UTC); Lines of Code: 34220; Version: v2.0.33" role="graphics-symbol" aria-roledescription="point" transform="translate(699.1351947117795,57.79999999999998)" d="M2.739,0A2.739,2.739,0,1,1,-2.739,0A2.739,2.739,0,1,1,2.739,0" fill="#4c78a8" stroke-width="2" opacity="1">
              <title>Date: 2026-08-22 08:18:42 (UTC); Lines of Code: 34220; Version: v2.0.33</title>
            </path>
            <path aria-label="Date: 2026-09-12 16:34:07 (UTC); Lines of Code: 34418; Version: v2.0.34" role="graphics-symbol" aria-roledescription="point" transform="translate(760.1998008415517,55.81999999999998)" d="M2.739,0A2.739,2.739,0,1,1,-2.739,0A2.739,2.739,0,1,1,2.739,0" fill="#4c78a8" stroke-width="2" opacity="1">
              <title>Date: 2026-09-12 16:34:07 (UTC); Lines of Code: 34418; Version: v2.0.34</title>
            </path>
            <path aria-label="Date: 2026-09-14 19:56:06 (UTC); Lines of Code: 35044; Version: v2.1.0" role="graphics-symbol" aria-roledescription="point" transform="translate(766.3230332151226,49.56)" d="M2.739,0A2.739,2.739,0,1,1,-2.739,0A2.739,2.739,0,1,1,2.739,0" fill="#4c78a8" stroke-width="2" opacity="1">
              <title>Date: 2026-09-14 19:56:06 (UTC); Lines of Code: 35044; Version: v2.1.0</title>
            </path>
            <path aria-label="Date: 2026-09-18 21:57:32 (UTC); Lines of Code: 35224; Version: v2.1.1" role="graphics-symbol" aria-roledescription="point" transform="translate(778.008165512939,47.75999999999998)" d="M2.739,0A2.739,2.739,0,1,1,-2.739,0A2.739,2.739,0,1,1,2.739,0" fill="#4c78a8" stroke-width="2" opacity="1">
              <title>Date: 2026-09-18 21:57:32 (UTC); Lines of Code: 35224; Version: v2.1.1</title>
            </path>
            <path aria-label="Date: 2026-09-26 06:42:23 (UTC); Lines of Code: 35247; Version: v2.1.2" role="graphics-symbol" aria-roledescription="point" transform="translate(799.0777021760821,47.52999999999999)" d="M2.739,0A2.739,2.739,0,1,1,-2.739,0A2.739,2.739,0,1,1,2.739,0" fill="#4c78a8" stroke-width="2" opacity="1">
              <title>Date: 2026-09-26 06:42:23 (UTC); Lines of Code: 35247; Version: v2.1.2</title>
            </path>
            <path aria-label="Date: 2026-09-26 14:26:36 (UTC); Lines of Code: 35452; Version: v2.1.3" role="graphics-symbol" aria-roledescription="point" transform="translate(800,45.48000000000001)" d="M2.739,0A2.739,2.739,0,1,1,-2.739,0A2.739,2.739,0,1,1,2.739,0" fill="#4c78a8" stroke-width="2" opacity="1">
              <title>Date: 2026-09-26 14:26:36 (UTC); Lines of Code: 35452; Version: v2.1.3</title>
            </path>
          </g>
        </g>
        <path class="foreground" aria-hidden="true" d="" display="none" />
      </g>
    </g>
  </g>
</svg>
